<svg width="304" height="507" viewBox="0 0 304 507" fill="none" xmlns="http://www.w3.org/2000/svg">
<g clip-path="url(#clip0_2_1346)">
<path d="M419.128 351.796C419.897 350.452 420.829 348.701 421.599 347.357C385.824 263.61 341.876 162.474 297.815 65.7709C295.903 65.2464 293.705 64.8446 291.915 64.6045C358.538 211.284 395.618 296.492 419.128 351.796Z" fill="#FFCC01"/>
<path d="M413.778 360.511L283.126 62.9972C281.336 62.7572 279.139 62.3553 277.064 62.2379C332.865 189.297 377.377 287.829 411.184 364.666C411.831 363.037 412.724 361.978 413.778 360.511Z" fill="#FFCC01"/>
<path d="M402.383 375.545C403.275 374.485 403.883 373.549 404.898 372.774C355.564 263.84 313.333 166.686 271.287 61.356C270.188 61.1551 269.213 61.2386 268.114 61.0377C310.69 166.814 338.62 234.716 402.383 375.545Z" fill="#FFCC01"/>
<path d="M398.65 380.19C399.827 379.008 400.596 377.664 401.773 376.482C372.705 309.07 341.398 259.154 254.812 60.7011C253.144 60.7455 251.761 60.6673 250.094 60.7116C285.328 139.294 322.52 220.068 329.59 234.898C352.515 283.37 377.431 330.983 398.65 380.19Z" fill="#FFCC01"/>
<path d="M385.827 393.478C387.572 392.05 388.911 390.461 390.25 388.872C346.983 283.057 294.376 165.752 244.277 60.5213C242.894 60.443 241.634 60.6492 240.373 60.8553C305.508 197.045 348.28 299.363 385.827 393.478Z" fill="#FFCC01"/>
<path d="M372.836 404.814C373.851 404.039 374.866 403.263 375.881 402.488C344.462 320.237 292.152 190.323 231.427 62.014C230.167 62.2202 228.622 62.549 227.239 62.4708C274.561 162.827 319.24 263.311 372.836 404.814Z" fill="#FFCC01"/>
<path d="M345.362 358.305C352.436 375.493 358.942 392.927 365.61 409.954C367.194 408.934 368.655 407.629 370.239 406.609C323.811 287.989 276.996 195.848 213.377 64.7386C212.116 64.9448 210.978 65.4354 209.718 65.6416C250.373 148.971 300.785 248.669 345.362 358.305Z" fill="#FFCC01"/>
<path d="M359.966 414.075C333.071 354.834 286.273 252.565 202.401 67.4474C201.141 67.6536 200.003 68.1442 198.458 68.473C282.62 255.827 328.442 358.18 354.929 417.259C356.798 416.116 358.382 415.095 359.966 414.075Z" fill="#FFCC01"/>
<path d="M347.169 421.953C348.753 420.933 350.621 419.79 352.328 419.054C307.036 317.148 244.137 180.668 192.929 70.519C191.791 71.0096 190.816 71.0931 189.678 71.5837C281.384 267.828 281.517 272.831 347.169 421.953Z" fill="#FFCC01"/>
<path d="M345.463 422.689C297.969 318.022 233.603 180.489 182.891 73.8358C181.469 74.4491 180.047 75.0624 178.625 75.6756C227.335 178.469 286.053 300.559 341.604 424.691C343.026 424.077 344.448 423.464 345.463 422.689Z" fill="#FFCC01"/>
<path d="M332.179 429.43C304.972 375.721 238.208 238.884 165.38 81.7246C164.242 82.2152 163.511 82.8676 162.374 83.3582C218.816 206.43 281.131 336.078 327.913 431.269C328.482 431.024 331.326 429.798 332.179 429.43Z" fill="#FFCC01"/>
<path d="M318.689 434.91C320.111 434.297 321.248 433.806 322.793 433.477C250.121 273.551 197.771 161.534 161.075 84.2559C159.491 85.2762 157.5 86.1348 155.916 87.1551C203.316 186.128 215.242 208.309 318.689 434.91Z" fill="#FFCC01"/>
<path d="M335.47 427.673C336.608 427.183 337.745 426.692 339.167 426.079C292.659 326.046 226.783 185.791 175.212 77.1474C174.075 77.638 173.221 78.0059 172.084 78.4965C214.255 166.906 287.039 322.398 335.47 427.673Z" fill="#FFCC01"/>
<path d="M308.933 438.104C310.763 437.652 312.469 436.917 314.299 436.465C263.025 315.212 202.992 186.942 154.615 88.0528C153.478 88.5434 152.462 89.3184 151.609 89.6864C209.419 205.759 260.966 322.172 308.933 438.104Z" fill="#FFCC01"/>
<path d="M303.445 439.458C186.668 181.162 180.157 161.369 147.587 92.095C145.719 93.238 144.257 94.5428 142.389 95.6858C196.859 209.489 253.317 339.637 298.08 441.097C299.786 440.361 301.616 439.91 303.445 439.458Z" fill="#FFCC01"/>
<path d="M287.836 443.154C289.665 442.702 291.617 442.535 293.447 442.084C253.708 349.927 195.543 220.514 137.599 99.4383C136.3 100.336 135 101.234 133.823 102.416C222.291 287.239 261.584 379.925 287.836 443.154Z" fill="#FFCC01"/>
<path d="M280.272 444.391C230.442 331.96 178.337 220.511 125.093 109.553C123.632 110.858 122.171 112.163 120.709 113.467C172.324 223.779 224.347 334.252 274.824 445.054C276.776 444.887 278.321 444.558 280.272 444.391Z" fill="#FFCC01"/>
<path d="M268.277 445.516C216.819 332.438 160.465 212.701 115.272 118.848C114.38 119.908 113.203 121.09 112.31 122.149C154.314 208.607 207.68 319.85 264.374 445.85C265.757 445.928 267.017 445.722 268.277 445.516Z" fill="#FFCC01"/>
<path d="M248.96 446.087C227.428 402.412 214.466 371.57 103.71 131.93C103.102 132.867 102.372 133.519 101.764 134.456C149.42 238.716 210.2 373.41 244.933 446.137C246.194 445.931 247.577 446.009 248.96 446.087Z" fill="#FFCC01"/>
<path d="M224.104 443.987C226.179 444.104 228.092 444.629 230.166 444.746C172.708 322.449 134.342 225.653 98.3164 138.978C97.1395 140.16 96.0853 141.627 95.3155 142.971C134.835 246.354 176.821 342.939 224.104 443.987Z" fill="#FFCC01"/>
<path d="M223.412 443.948C188.311 370.368 165.915 322.343 87.4112 155.15C86.6414 156.493 85.8716 157.837 85.1018 159.181C136.962 270.061 182.773 367.696 217.919 442.943C219.709 443.183 221.622 443.708 223.412 443.948Z" fill="#FFCC01"/>
<path d="M202.17 439.277C204.083 439.801 205.996 440.326 207.909 440.85C167.633 363.093 119.848 256.189 80.4044 168.628C79.9191 169.849 79.1493 171.193 78.6639 172.414C110.253 239.413 193.183 421.564 202.17 439.277Z" fill="#FFCC01"/>
<path d="M201.763 439.115C165.184 359.763 115.036 250.506 78.5407 172.13C77.7709 173.474 77.4082 174.979 76.6384 176.323C111.338 252.1 159.892 357.66 197 437.458C198.629 438.105 200.257 438.752 201.763 439.115Z" fill="#FFCC01"/>
<path d="M188.536 435.037C190.164 435.684 191.67 436.047 193.298 436.694C157.991 361.853 110.794 281.345 71.9865 187.437C71.3394 189.065 70.9767 190.571 70.3296 192.2C116.569 299.432 150.235 349.343 188.536 435.037Z" fill="#FFCC01"/>
<path d="M171.193 427.673C173.636 428.644 175.917 430.021 178.359 430.992C118.77 319.397 101.437 279.983 67.1441 204.368C66.7814 205.873 66.2569 207.786 65.8942 209.292C103.264 296.736 135.377 361.822 171.193 427.673Z" fill="#FFCC01"/>
<path d="M142.441 411.061C144.314 412.277 146.311 413.778 148.184 414.994C90.001 295.708 107.055 337.604 62.4332 226.301C61.9922 229.19 61.5512 232.078 61.5174 235.129C73.7929 268.29 80.0481 282.797 142.441 411.061Z" fill="#FFCC01"/>
<path d="M120.682 393.458C123.454 395.973 126.348 398.773 129.404 401.166C103.796 353.514 82.3423 308.456 60.6384 260.47C60.6045 263.52 60.9777 266.733 61.2283 269.66C78.1097 307.245 100.795 357.507 120.682 393.458Z" fill="#FFCC01"/>
<path d="M101.233 371.822C88.6395 341.834 76.7762 311.193 62.7601 281.818C63.5013 285.884 64.2424 289.949 64.9836 294.015C89.057 346.714 83.6528 349.044 101.233 371.822Z" fill="#FFCC01"/>
</g>
<defs>
<clipPath id="clip0_2_1346">
<rect width="385.642" height="385.642" fill="white" transform="translate(354.121) rotate(66.6739)"/>
</clipPath>
</defs>
</svg>
