<svg width="101" height="97" viewBox="0 0 101 97" fill="none" xmlns="http://www.w3.org/2000/svg">
<g clip-path="url(#clip0_2_1473)">
<path d="M100.265 83.9631C91.7663 91.5886 78.5284 94.4585 67.5786 96.0164C56.547 97.5743 41.348 98.3942 32.5227 89.9487C25.9855 83.6351 26.2307 72.7298 30.8884 65.3503C36.4451 56.7408 49.1926 58.2167 57.4459 61.4965C57.119 62.2345 56.7104 62.9724 56.3836 63.7104C51.8892 61.5785 47.7218 59.2006 45.5155 54.5269C43.7994 50.8372 43.7177 46.2454 44.2897 42.3097C44.8617 38.4559 46.0057 34.4382 49.7646 32.7163C54.0138 30.6664 58.5899 31.4044 62.8391 32.9623C72.3998 36.57 79.7541 45.0975 85.2291 53.461C88.4159 58.2987 89.2331 63.8744 91.6028 69.04C93.6457 73.5498 96.6692 79.1254 100.346 82.4052C101.49 83.4711 99.9378 85.357 98.7121 84.2911C94.2177 80.1913 90.3771 73.2218 88.4159 67.4821C86.7816 62.8084 85.6376 58.2987 82.7776 54.1989C80.2444 50.4272 77.221 46.5734 74.0341 43.3756C68.7226 38.1279 55.4847 28.6165 48.8658 36.57C46.0875 39.9318 45.924 46.2454 46.7412 50.3452C47.8852 56.2488 52.2978 59.1186 57.3642 61.4145C58.835 62.0705 57.7727 64.2023 56.3019 63.6284C48.0486 60.3486 36.0365 59.3646 31.7056 68.794C27.3747 78.3055 30.8067 88.3088 40.6943 92.0806C50.0098 95.6884 61.1231 94.5405 70.7655 92.9006C79.8358 91.4247 91.3577 88.5548 98.3035 82.2412C99.6109 81.3393 101.409 82.9792 100.265 83.9631Z" fill="#512A00"/>
<path d="M100.183 84.2088C97.4049 85.2747 92.5837 82.4869 90.1322 81.585C84.6573 79.5351 79.4275 77.4032 74.1978 74.7794C63.4931 69.4497 53.6055 62.5622 44.0449 55.5106C34.4842 48.377 26.0675 40.2595 18.7949 30.8301C15.2811 26.2384 11.7674 21.5647 8.58046 16.727C5.47529 11.9713 3.4324 6.47763 0.245506 1.96791C-0.653358 0.655988 1.38952 -0.655931 2.28839 0.573993C5.14842 4.50975 6.86444 9.34745 9.47933 13.5292C12.2576 18.0389 15.4445 22.2207 18.6314 26.4844C25.5772 35.8318 33.3402 44.0313 42.574 51.2469C51.5627 58.2984 61.3685 65.35 71.5012 70.6796C75.9138 72.9755 80.4081 75.2714 84.9842 77.0753C87.5174 78.0592 90.1322 78.9611 92.6654 79.9451C94.218 80.519 97.7318 82.5689 99.3661 81.913C100.919 81.339 101.654 83.6348 100.183 84.2088Z" fill="#512A00"/>
<path d="M52.544 59.6926C56.0577 64.9402 58.3457 70.7619 61.2058 76.3375C62.6767 79.2894 64.5561 81.9952 66.1087 84.865C67.5796 87.5708 69.2139 90.6867 71.2567 92.9825C72.319 94.1304 70.6847 96.0163 69.6224 94.8684C65.7001 90.4407 62.7584 84.455 59.8983 79.2894C56.548 73.3037 54.26 66.9081 50.5011 61.1685C49.6022 59.6926 51.6451 58.3807 52.544 59.6926Z" fill="#512A00"/>
<path d="M61.2051 66.8258C61.1233 66.8258 61.0416 66.8258 60.9599 66.8258C61.3685 66.1699 61.7771 65.5959 62.1856 64.94C64.8822 69.9416 68.8046 74.6974 72.4818 78.8791C75.8321 82.6509 78.8555 87.0786 83.023 90.0304C84.167 90.8504 82.8596 92.7362 81.7156 92.0803C81.6339 92.0803 81.5521 91.9983 81.4704 91.9983C80.0813 91.2603 81.1436 89.0465 82.5327 89.7844C82.6144 89.7844 82.6962 89.8664 82.7779 89.8664C82.3693 90.5224 81.879 91.2603 81.4704 91.9163C77.0578 88.7185 73.5441 83.7988 70.0303 79.699C66.5165 75.6813 62.8394 71.0076 60.3062 66.2519C59.8159 65.3499 60.4696 64.202 61.5319 64.366C61.6136 64.366 61.6954 64.366 61.7771 64.366C63.2479 64.612 62.7576 66.9898 61.2051 66.8258Z" fill="#512A00"/>
<path d="M89.641 89.6204C87.0261 88.1445 84.8198 85.0287 82.8586 82.7329C81.7146 81.3389 80.4889 80.027 79.1815 78.7971C78.446 78.1411 78.0374 77.7312 77.9557 76.6652C77.7923 75.1073 80.2438 74.8613 80.4072 76.5012C80.4072 76.9112 82.0415 78.0591 82.3684 78.3871C83.1855 79.2071 83.9209 80.109 84.6564 81.093C85.637 82.2409 86.6175 83.3068 87.6798 84.3728C88.5787 85.2747 89.641 86.8326 90.785 87.4886C92.0107 88.2265 90.9484 90.4404 89.641 89.6204Z" fill="#512A00"/>
<path d="M81.307 76.4193C81.307 76.5013 81.307 76.5833 81.2253 76.6653C80.8167 76.1734 80.3264 75.6814 79.9178 75.1894C81.1436 75.0254 82.2876 74.5335 83.4316 74.2875C84.6573 74.0415 85.883 73.8775 87.1088 73.4675C87.9259 73.2215 88.7431 72.8936 89.5602 72.5656C90.0505 72.4016 90.9494 72.3196 91.358 71.9916C92.5837 71.0077 93.8911 73.0576 92.7471 74.0415C92.2568 74.4515 91.4397 74.6155 90.8677 74.7795C89.8871 75.1074 88.9065 75.5174 87.8442 75.8454C86.7002 76.1734 85.5562 76.3374 84.4122 76.5833C82.9413 76.9113 81.5521 77.4033 80.0813 77.6493C79.2641 77.7313 78.6104 76.9113 78.7738 76.1734C78.7738 76.0914 78.7738 76.0094 78.8555 75.9274C79.1824 74.4515 81.6338 74.8614 81.307 76.4193Z" fill="#512A00"/>
<path d="M62.595 64.2018C67.8248 63.6278 72.9729 63.1358 78.2026 62.3979C81.6347 61.9059 85.1484 61.6599 88.5805 61.8239C90.133 61.9059 89.7245 64.3658 88.1719 64.2838C84.5764 64.1198 80.7358 64.6117 77.1403 65.0217C72.3191 65.5957 67.5797 66.0876 62.7585 66.6616C61.2059 66.8256 61.0424 64.3658 62.595 64.2018Z" fill="#512A00"/>
<path d="M52.624 59.2004C62.3482 55.9206 72.8894 52.9687 83.0221 51.4928C82.777 52.2308 82.5318 52.8868 82.2867 53.6247C82.205 53.5427 82.1232 53.5427 82.1232 53.4607C80.8975 52.3948 82.5318 50.5909 83.7575 51.5748C83.8393 51.6568 83.8393 51.7388 83.921 51.8208C84.7381 52.5588 84.2478 53.7887 83.1855 53.9527C73.2163 55.4286 63.0019 58.2984 53.4412 61.4962C51.9703 61.9882 51.1532 59.6923 52.624 59.2004Z" fill="#512A00"/>
<path d="M46.9062 52.6405C48.4588 51.1646 50.8285 50.5907 52.7897 49.8527C55.8131 48.7048 59.0818 47.9668 62.1052 46.8189C67.335 44.933 71.6659 44.851 77.3042 45.097C78.8568 45.179 79.102 47.6388 77.4677 47.5568C72.5648 47.3929 68.1521 47.2289 63.4944 48.9508C61.2063 49.8527 58.8366 50.4267 56.5486 51.2466C54.424 51.9846 50.4199 52.7225 48.7856 54.3624C47.6416 55.4284 45.7622 53.7885 46.9062 52.6405Z" fill="#512A00"/>
<path d="M45.7609 44.8512C45.6792 44.7692 45.5974 44.6872 45.5157 44.6052C44.9437 44.1133 45.0254 43.1293 45.6792 42.6374C47.6403 41.4074 50.0101 40.7515 52.0529 39.6855C54.1775 38.6196 56.3021 37.7997 58.5902 37.1437C60.4696 36.5697 62.5125 36.0778 64.4737 36.0778C66.0263 36.0778 67.252 36.7337 68.7229 36.8977C70.2754 37.0617 69.8669 39.5215 68.3143 39.3576C67.0886 39.1936 65.9445 38.6196 64.7188 38.5376C62.5942 38.3736 60.3062 39.1936 58.2633 39.8495C56.2204 40.5055 54.4227 41.3254 52.4615 42.3094C50.7455 43.2113 48.7026 43.7033 47.0683 44.7692C47.15 44.1133 47.15 43.4573 47.2318 42.8013C47.3135 42.8833 47.3952 42.9653 47.4769 43.0473C48.6209 44.0313 46.9866 45.8352 45.7609 44.8512Z" fill="#512A00"/>
<path d="M59.3246 95.934C54.34 91.8343 51.8885 86.0947 50.0091 80.109C48.8651 76.5012 47.3942 72.9755 45.9233 69.4497C44.9428 66.9898 44.6159 62.8081 42.7364 60.8402C41.6741 59.6923 43.2267 57.8064 44.3707 58.9543C45.8416 60.5122 46.3319 62.8081 46.9856 64.776C48.0479 68.1378 49.5188 71.3356 50.8262 74.6154C53.4411 81.6669 54.912 88.9645 61.0406 93.9662C62.1029 95.1141 60.5504 97 59.3246 95.934Z" fill="#512A00"/>
<path d="M46.2519 95.5241C42.2479 91.9983 39.7147 86.7506 38.1621 81.7489C36.2826 75.6813 35.2203 68.9577 33.9129 62.7261C33.7495 61.8242 34.3215 60.9222 35.3021 61.0862C35.3838 61.0862 35.4655 61.0862 35.5472 61.1682C37.0998 61.4962 36.6912 63.874 35.1386 63.6281C35.0569 63.6281 34.9752 63.6281 34.8935 63.5461C35.3838 62.9721 35.7924 62.4801 36.2826 61.9062C37.4267 67.1538 38.7341 72.4015 39.7964 77.7312C40.9404 83.5528 43.3101 89.7024 47.8862 93.7202C49.1119 94.7041 47.4776 96.59 46.2519 95.5241Z" fill="#512A00"/>
</g>
<defs>
<clipPath id="clip0_2_1473">
<rect width="101" height="97" fill="white" transform="matrix(-1 0 0 1 101 0)"/>
</clipPath>
</defs>
</svg>
