<svg width="213" height="222" viewBox="0 0 213 222" fill="none" xmlns="http://www.w3.org/2000/svg">
<g clip-path="url(#clip0_2_1441)">
<path d="M150.299 13.1024C150.402 13.0484 150.402 13.0484 150.506 12.9943C151.959 12.4989 149.066 11.2449 148.544 11.2541C124.44 11.9924 99.0309 21.5756 79.4356 35.2324C56.746 51.0317 31.4152 76.9001 31.1524 106.398C31.0445 118.041 34.9953 131.909 41.5852 141.502C48.121 150.991 59.405 154.446 70.6247 154.248C82.627 154.037 91.5362 147.146 99.9591 139.324C104.991 134.589 108.341 129.153 111.892 123.349C115.947 116.491 120.061 109.998 122.325 102.232C124.891 93.7827 127.245 85.1803 129.284 76.4791C131.179 68.5112 132.184 60.3502 133.975 52.4363C135.772 44.7833 136.525 37.1488 138.685 29.4372C139.719 25.8693 141.116 22.2428 143.045 19.129C144.924 16.1726 147.717 14.7139 150.128 12.2702C149.129 11.8702 148.076 11.3668 146.974 11.0208C146.821 11.2323 146.668 11.4438 146.569 11.7588C145.859 12.9197 149.22 14.061 149.723 13.0082C149.876 12.7967 150.029 12.5852 150.128 12.2702C150.888 10.9518 147.743 10.2243 146.974 11.0208C143.893 13.9462 141.001 15.7198 138.929 19.567C135.998 25.0475 134.07 31.189 132.926 37.3166C130.627 49.0501 129.111 60.7698 126.551 72.5078C120.952 98.3414 112.402 125.584 91.2017 142.976C79.4684 152.526 60.4993 157.298 48.1818 145.561C39.6356 137.517 35.6078 122.241 34.6766 110.877C32.4118 83.0944 54.4909 59.3191 74.1931 42.8417C85.8184 33.084 99.2574 25.5389 113.579 20.6927C124.892 16.8913 137.725 13.4807 149.674 13.1656C148.985 12.6036 148.4 11.9875 147.712 11.4254C147.608 11.4794 147.608 11.4794 147.505 11.5335C146.259 11.9208 149.26 13.3817 150.299 13.1024Z" fill="#79C800"/>
<path d="M143.694 11.5484C135.986 18.4705 128.544 25.6488 120.516 32.211C112.696 38.6652 105.086 45.2723 98.2739 52.6483C84.7027 67.5038 73.0535 84.7788 63.9732 102.687C54.5918 121.279 48.261 141.175 43.2889 161.151C38.5638 180.34 35.148 199.767 34.715 219.61C34.738 220.915 38.0897 221.534 38.0713 220.491C38.5044 200.647 41.9202 181.22 46.6452 162.032C51.4737 142.789 57.5034 123.577 66.3227 105.673C75.3397 87.1397 87.3982 69.3877 101.379 54.0552C108.241 46.5217 115.904 40.0181 123.621 33.6179C131.594 26.9522 139.091 19.8773 146.799 12.9553C147.671 12.1047 144.621 10.8013 143.694 11.5484Z" fill="#79C800"/>
<path d="M129.548 17.4879C129.652 17.4338 129.598 17.3304 129.701 17.2764C130.155 16.3809 126.952 15.289 126.498 16.1844C122.389 22.9386 117.276 29.0318 114.008 36.1365C113.707 36.8204 115.178 37.3687 115.493 37.4675C118.584 38.0916 122.124 37.5594 125.143 37.0364C127.487 36.734 129.83 36.4317 132.12 36.0259C133.371 35.8994 134.972 34.9316 136.119 34.8592C138.413 34.7143 136.136 32.8752 134.831 32.8982C132.173 33.1017 129.37 34.0386 126.716 34.503C123.541 34.9766 119.285 36.4089 115.983 35.6319C116.46 36.0411 116.937 36.4503 117.468 36.9629C120.583 30.0697 125.592 24.0305 129.548 17.4879C128.446 17.1419 127.344 16.7959 126.241 16.45C126.138 16.504 126.192 16.6074 126.089 16.6615C125.738 17.5029 128.941 18.5948 129.548 17.4879Z" fill="#79C800"/>
<path d="M111.158 19.5869C108.421 27.2042 105.532 35.0331 102.165 42.4527C101.158 44.5585 98.2492 48.3161 100.324 50.5241C100.855 51.0367 102.272 51.4815 102.996 51.1034C108.884 47.5021 116.392 47.0043 123.023 47.0961C127.094 47.0765 130.783 46.0719 134.741 45.5845C136.617 45.3948 133.976 43.6143 133.09 43.6822C132.986 43.7362 132.829 43.6868 132.725 43.7408C130.431 43.8857 132.708 45.7247 134.013 45.7017C134.116 45.6477 134.274 45.6971 134.377 45.6431C133.792 45.027 133.207 44.4109 132.725 43.7408C129.86 44.0523 126.797 44.9938 123.877 45.2018C120.957 45.4099 118.024 44.8353 115.055 45.2008C110.156 45.6526 104.488 46.901 100.306 49.4804C101.196 49.6735 102.087 49.8666 102.978 50.0597C102.073 49.0838 106.722 40.3366 107.068 39.2342C109.305 32.9307 112.227 26.9283 114.465 20.6248C114.964 19.311 111.553 18.3271 111.158 19.5869Z" fill="#79C800"/>
<path d="M98.3582 24.824C96.3203 24.7033 96.0329 26.17 95.3858 27.9563C93.6468 32.946 92.3308 38.2414 91.1182 43.4829C89.9056 48.7243 88.5896 54.0198 87.638 59.2566C87.2564 61.2992 86.8702 63.0808 88.6702 64.5107C90.1507 65.5808 91.3967 65.1934 92.9576 64.9049C98.1622 64.0301 103.214 63.3668 108.581 62.8023C116.97 61.9757 125.464 61.0952 133.628 59.333C132.939 58.7709 132.197 58.1054 131.612 57.4893C131.405 57.5973 131.144 57.6019 130.937 57.71C129.066 58.1606 131.914 59.833 132.953 59.5536C133.16 59.4456 133.421 59.441 133.628 59.333C135.603 58.8283 132.547 57.264 131.612 57.4893C119.183 60.1619 106.492 59.8115 94.1128 62.3267C92.6553 62.5612 91.576 63.5198 90.9817 62.3819C90.5001 61.7118 91.1966 59.7681 91.2863 58.9313C92.1529 54.7921 93.3344 50.7519 94.201 46.6127C94.5872 44.8311 98.2376 26.8619 99.6996 26.8884C101.89 26.7975 99.5594 24.855 98.3582 24.824Z" fill="#79C800"/>
<path d="M80.474 34.953C79.0247 44.5313 77.6835 54.3165 76.1308 63.9487C75.471 67.9798 74.9688 72.0603 75.1459 76.181C75.1195 77.6431 74.6218 81.9845 75.5356 83.4822C76.0713 84.2558 77.646 84.75 78.4196 84.2144C81.5725 82.4362 86.3231 82.4568 89.8047 81.5602C94.7932 80.2716 100.056 79.7612 105.099 78.576C109.57 77.5575 113.642 77.5379 117.892 75.8448C121.936 74.2596 125.709 72.1573 129.699 70.4687C128.75 69.9112 127.958 69.4032 127.008 68.8457C126.698 69.0078 126.388 69.1699 126.181 69.2779C124.836 69.9803 127.837 71.4411 128.872 70.9009C129.182 70.7388 129.492 70.5767 129.699 70.4687C131.147 69.7123 127.993 68.463 127.008 68.8457C123.329 70.3722 119.762 72.3666 116.083 73.8931C110.901 76.0725 104.855 76.5967 99.3944 77.737C94.6081 78.6566 89.8713 79.4188 85.1391 80.4418C82.0713 81.1224 78.5713 80.9753 75.8322 82.5374C76.777 82.8339 77.8253 83.0765 78.7161 83.2695C78.0184 82.1856 78.6677 74.6051 78.6493 73.5614C78.6837 69.5936 79.5055 65.8728 79.9583 61.9498C81.0571 53.213 82.5742 44.5209 83.8304 35.8335C84.1223 34.6277 80.6625 33.8013 80.474 34.953Z" fill="#79C800"/>
<path d="M62.3546 49.4189C58.7283 59.8708 60.7698 69.0743 61.4263 79.6594C61.7252 84.7698 62.5908 89.4526 63.3576 94.4503C63.9392 97.8331 62.9738 102.287 64.5945 105.391C64.9727 106.115 66.8084 106.604 67.4785 106.123C72.2773 102.958 78.3682 102.016 83.7705 100.511C89.3303 99.0557 94.0843 96.3096 99.482 94.544C105.087 92.6704 110.696 91.0576 116.251 89.3414C120.196 88.0712 124.698 85.8516 127.144 82.4676C127.908 81.4102 124.651 80.2148 123.99 81.2183C120.371 86.1367 114.181 87.3943 108.729 89.0565C103.588 90.5566 98.3429 92.1107 93.4222 94.2855C88.398 96.5143 83.5222 98.2707 78.2233 99.7214C73.4957 101.005 68.7095 101.925 64.5807 104.608C65.5256 104.904 66.5739 105.147 67.4647 105.34C66.0014 102.286 66.9484 96.7882 66.1599 93.5135C65.1414 89.0422 64.7528 84.7686 64.4631 80.1801C63.8112 69.8558 61.8191 60.4949 65.3466 50.358C66.111 49.3005 62.804 48.2626 62.3546 49.4189Z" fill="#79C800"/>
<path d="M47.3934 65.3952C47.8314 69.5113 47.2303 73.9068 47.5109 77.9735C47.9224 83.5517 49.4271 88.954 50.41 94.3655C51.3342 99.4126 52.4653 104.352 53.8574 109.286C54.754 112.768 53.8287 116.543 56.0748 119.583C56.6104 120.356 58.1852 120.851 58.9587 120.315C61.5403 118.703 65.4047 118.792 68.3151 118.062C71.3289 117.278 74.176 115.923 77.0231 114.568C82.4611 112.123 87.8002 109.993 93.3508 108.016C99.3151 105.822 105.5 104.304 111.082 101.126C116.457 98.0553 121.124 93.3794 125.752 89.3827C124.753 88.9827 123.7 88.4793 122.598 88.1333C122.548 88.2908 122.396 88.5023 122.292 88.5563C121.582 89.7173 124.785 90.8092 125.446 89.8057C125.496 89.6482 125.648 89.4367 125.752 89.3827C126.512 88.0643 123.421 87.4402 122.598 88.1333C117.453 92.4001 112.479 97.4991 106.529 100.475C100.785 103.343 94.0335 105.289 87.961 107.275C83.0311 108.928 78.061 111.261 73.4013 113.431C69.6231 115.272 66.092 116.326 61.9805 117.025C60.1587 117.318 57.9725 117.67 56.2679 118.692C57.2127 118.989 58.261 119.231 59.1518 119.424C57.3334 116.951 58.6012 114.84 58.0827 112.083C57.7356 110.157 56.7137 108.453 56.2091 106.478C54.8757 101.908 54.271 97.2206 53.4594 92.6413C52.5398 87.8551 51.2558 83.1275 50.9074 78.1746C50.6764 73.9504 51.228 69.7124 50.79 65.5963C50.6682 64.6066 47.213 64.0412 47.3934 65.3952Z" fill="#79C800"/>
<path d="M35.4725 84.9196C36.1979 87.5691 36.2979 90.2817 37.0232 92.9312C37.8612 96.0484 39.6349 98.9404 40.3694 102.112C41.6626 107.361 42.8523 112.665 44.4064 117.909C46.5732 125.336 51.3274 134.439 59.9504 132.043C71.2229 128.921 82.108 124.553 92.9931 120.185C103.514 115.875 115.858 114.3 121.985 103.596C122.439 102.7 120.082 102.22 119.663 102.175C119.56 102.229 119.402 102.179 119.299 102.233C117.054 102.221 119.385 104.163 120.586 104.194C120.69 104.14 120.847 104.19 120.951 104.136C120.159 103.628 119.421 103.223 118.629 102.715C113.162 112.416 101.867 114.234 92.3264 117.9C82.6286 121.516 73.147 125.546 63.2826 128.591C61.6723 129.037 57.7412 131.09 56.2745 130.802C54.0745 130.371 51.8147 126.548 50.7388 124.74C48.1594 120.558 47.7708 116.284 46.3339 111.768C45.0051 107.459 44.1982 103.14 42.559 98.9932C40.8612 94.4817 40.2612 90.0552 39.0312 85.4311C38.4863 84.1357 35.1886 83.6196 35.4725 84.9196Z" fill="#79C800"/>
<path d="M31.3429 108.274C30.6349 115.49 34.0305 124.513 38.4639 130.229C41.133 133.575 44.0181 137.335 47.0469 140.361C48.7975 141.949 49.9539 142.398 52.1987 142.411C61.6999 142.452 71.5966 141.233 80.9081 139.399C90.6875 137.451 99.6933 136.04 107.406 129.379C107.869 129.005 107.181 128.443 106.915 128.187C106.758 128.137 106.65 127.93 106.492 127.881C105.435 127.117 102.52 127.586 104.369 128.858C104.527 128.907 104.635 129.114 104.792 129.164C104.576 128.75 104.414 128.44 104.301 127.972C97.1553 134.205 88.8288 135.657 79.8276 137.33C72.023 138.772 64.2137 139.954 56.3366 140.25C52.8412 140.364 51.4516 141.484 49.1113 139.02C46.5595 136.403 43.8951 133.318 41.5996 130.435C37.4317 124.975 34.0453 116.474 34.7579 109.519C34.8337 107.899 31.4279 107.176 31.3429 108.274Z" fill="#79C800"/>
</g>
<defs>
<clipPath id="clip0_2_1441">
<rect width="198.983" height="146.466" fill="white" transform="translate(212.18 129.828) rotate(152.425)"/>
</clipPath>
</defs>
</svg>
